<svg width="112" height="50" viewBox="0 0 112 50" fill="none" xmlns="http://www.w3.org/2000/svg">
<path d="M25.7351 11.7006H23.8817C23.1438 11.7006 22.5463 12.2941 22.5463 13.0271V26.6611C22.5463 27.3941 23.1446 27.9876 23.8817 27.9876H25.7351C26.4722 27.9876 27.0705 27.3941 27.0705 26.6611V13.0264C27.0705 12.2941 26.473 11.7006 25.7351 11.7006Z" fill="white"/>
<path d="M19.0697 11.7006C17.9012 11.7006 16.9207 12.3964 16.4457 13.3921L11.5236 23.7772C11.4074 24.0228 11.1757 24.4226 10.9822 24.4226C10.7888 24.4226 10.5571 24.0236 10.4409 23.7772L5.48605 13.3921C5.011 12.3956 4.03048 11.7006 2.86198 11.7006H0L7.81136 26.7277C8.58516 28.203 10.1702 28.172 10.9822 28.172C12.1039 28.172 13.4183 28.1108 14.1149 26.7277L21.927 11.7006H19.0697Z" fill="white"/>
<path d="M105.383 9.20414C105.383 8.47115 104.785 7.87762 104.047 7.87762H102.194C101.457 7.87762 100.858 8.47115 100.858 9.20414V22.6715C100.858 24.7303 101.593 25.9289 102.907 26.789C104.184 27.6188 105.653 27.9877 108.399 27.9877H109.887C110.624 27.9877 111.222 27.3934 111.222 26.6611V25.2223H110.1C109.288 25.2223 107.587 25.1913 106.581 24.5156C105.266 23.6548 105.382 22.1183 105.382 21.0118V9.20414H105.383Z" fill="white"/>
<path d="M76.4162 25.2215C75.6042 25.2215 73.9022 25.1905 72.8975 24.5149C71.5823 23.654 71.6985 22.1175 71.6985 21.0111V14.466H76.0863C76.8234 14.466 77.4217 13.8717 77.4217 13.1395V11.6999H71.6985V9.20414C71.6985 8.47115 71.1002 7.87762 70.3631 7.87762H68.5097C67.7718 7.87762 67.1743 8.47115 67.1743 9.20414V11.7007H57.7381V9.20414C57.7381 8.47115 57.1398 7.87762 56.4027 7.87762H54.5493C53.8114 7.87762 53.2138 8.47115 53.2138 9.20414V11.7007H50.3909V13.1395C50.3909 13.8717 50.9884 14.466 51.7263 14.466H53.2146V22.6708C53.2146 24.7295 53.9494 25.9282 55.2638 26.7882C56.54 27.6181 58.0096 27.9869 60.7553 27.9869H62.2429C62.9808 27.9869 63.5783 27.3926 63.5783 26.6604V25.2215H62.4566C61.6446 25.2215 59.9425 25.1905 58.937 24.5149C57.6219 23.654 57.7381 22.1175 57.7381 21.0111V14.466H67.1735V22.6708C67.1735 24.7295 67.9083 25.9282 69.2235 26.7882C70.4996 27.6181 71.9692 27.9869 74.715 27.9869H76.2025C76.9397 27.9869 77.5379 27.3926 77.5379 26.6604V25.2215H76.4162Z" fill="white"/>
<path d="M48.7269 26.662V25.2232H38.7112C37.0481 25.2232 35.1534 25.0387 34.573 23.2868C34.4178 22.7948 34.3024 21.7504 34.3024 21.0437H46.2136C47.0257 21.0437 47.7995 20.9205 48.418 20.4293C49.2683 19.7536 49.3845 18.8006 49.3845 17.9707C49.3845 15.912 48.8814 13.8835 46.4843 12.6856C44.5896 11.7325 42.1145 11.6403 39.7166 11.6403C37.7829 11.6403 34.3024 11.6403 32.0597 13.1768C29.8171 14.7133 29.6237 16.9565 29.6237 19.9992C29.6237 22.1502 29.7399 24.3933 31.0933 25.9298C32.7945 27.8351 35.2696 27.9885 37.3578 27.9885H47.3915C48.1294 27.9885 48.7269 27.3942 48.7269 26.662ZM44.705 17.3245C44.705 17.7545 44.5888 18.2775 43.6995 18.2775H37.2642C35.6284 18.2775 34.3016 19.0206 34.3016 19.9372V18.2775C34.3406 17.2021 34.3016 16.311 35.2298 15.4812C36.467 14.3747 38.3235 14.4057 39.5224 14.4057C40.7986 14.4057 42.2682 14.4669 43.3899 15.1433C44.0474 15.5424 44.705 16.311 44.705 17.3245Z" fill="white"/>
<path d="M97.6473 26.662V25.2232H87.6315C85.9685 25.2232 84.0737 25.0387 83.4934 23.2868C83.3381 22.7948 83.2219 21.7504 83.2219 21.0437H95.1332C95.9452 21.0437 96.7182 20.9205 97.3376 20.4293C98.1878 19.7536 98.3048 18.8006 98.3048 17.9707C98.3048 15.912 97.8017 13.8835 95.4039 12.6856C93.5091 11.7325 91.0341 11.6403 88.6362 11.6403C86.7025 11.6403 83.2219 11.6403 80.9793 13.1768C78.7367 14.7133 78.5432 16.9565 78.5432 19.9992C78.5432 22.1502 78.6594 24.3933 80.0128 25.9298C81.7141 27.8351 84.1892 27.9885 86.2773 27.9885H96.311C97.049 27.9885 97.6473 27.3942 97.6473 26.662ZM93.6254 17.3245C93.6254 17.7545 93.5091 18.2775 92.6199 18.2775H86.1845C84.5488 18.2775 83.2219 19.0206 83.2219 19.9372V18.2775C83.2609 17.2021 83.2219 16.311 84.1502 15.4812C85.3873 14.3747 87.2438 14.4057 88.4427 14.4057C89.7189 14.4057 91.1885 14.4669 92.3102 15.1433C92.9678 15.5424 93.6254 16.311 93.6254 17.3245Z" fill="white"/>
<path d="M25.7351 7.14282H23.8817C23.1438 7.14282 22.5463 7.73635 22.5463 8.46934V8.83661V11.7004H22.565C22.6929 10.948 23.5541 10.1631 24.8092 10.1631H25.7359C26.473 10.1631 27.0713 9.56883 27.0713 8.83661V8.46934C27.0705 7.73635 26.473 7.14282 25.7351 7.14282Z" fill="white"/>
<path d="M81.362 50H80.009V41.4155C80.009 40.9982 80.1378 40.7015 80.3957 40.525C80.6536 40.3489 80.9917 40.2607 81.4105 40.2607H83.9714C84.6585 40.2607 85.2251 40.3444 85.6706 40.511C86.1162 40.678 86.4733 40.9171 86.7421 41.2278C87.01 41.5384 87.1985 41.9211 87.3055 42.3754C87.4129 42.8301 87.4664 43.3447 87.4664 43.9197C87.4664 44.4946 87.4125 45.0119 87.3055 45.4707C87.1981 45.9299 87.01 46.3194 86.7421 46.639C86.4733 46.9591 86.1162 47.205 85.6706 47.3765C85.2251 47.548 84.6585 47.634 83.9714 47.634H81.362V50ZM81.362 46.6886H83.7298C84.2451 46.6886 84.6558 46.6192 84.9617 46.4797C85.2677 46.3405 85.5011 46.1483 85.6625 45.9025C85.8238 45.6571 85.9285 45.3649 85.9766 45.0259C86.0246 44.6873 86.0491 44.3186 86.0491 43.9197C86.0491 43.5208 86.0251 43.1543 85.9766 42.8207C85.9281 42.4866 85.8234 42.2016 85.6625 41.9648C85.5016 41.7284 85.2677 41.5429 84.9617 41.4083C84.6558 41.2741 84.2447 41.2066 83.7298 41.2066H81.8615C81.7006 41.2066 81.5768 41.2368 81.4912 41.2971C81.4051 41.3574 81.3624 41.4709 81.3624 41.6379V46.6886H81.362Z" fill="white"/>
<path d="M92.9104 40.1762C93.6728 40.1762 94.3305 40.241 94.8835 40.3712C95.4364 40.5013 95.8901 40.712 96.2446 41.0042C96.599 41.2964 96.8619 41.6813 97.0337 42.159C97.2055 42.6371 97.2911 43.2233 97.2911 43.9189C97.2911 44.6145 97.205 45.2057 97.0337 45.6928C96.8619 46.1795 96.599 46.5717 96.2446 46.8684C95.8901 47.1651 95.4369 47.3812 94.8835 47.5153C94.33 47.6495 93.6728 47.717 92.9104 47.717C92.1481 47.717 91.4904 47.6495 90.9374 47.5153C90.3845 47.3807 89.9308 47.1651 89.5763 46.8684C89.2219 46.5717 88.959 46.1795 88.7872 45.6928C88.6154 45.2057 88.5293 44.6145 88.5293 43.9189C88.5293 43.2233 88.615 42.6367 88.7872 42.159C88.959 41.6813 89.2219 41.2964 89.5763 41.0042C89.9308 40.712 90.384 40.5013 90.9374 40.3712C91.4904 40.2415 92.1476 40.1762 92.9104 40.1762ZM89.9466 43.9189C89.9466 44.4385 90.0001 44.8788 90.1075 45.2404C90.2149 45.6019 90.384 45.8968 90.6147 46.1237C90.8454 46.3511 91.1486 46.5158 91.5248 46.6176C91.9006 46.7198 92.3625 46.7707 92.91 46.7707C93.4575 46.7707 93.9194 46.7198 94.2951 46.6176C94.6713 46.5158 94.9741 46.3511 95.2053 46.1237C95.4364 45.8968 95.605 45.6019 95.7125 45.2404C95.8199 44.8788 95.8734 44.4381 95.8734 43.9189C95.8734 43.3994 95.8194 42.9613 95.7125 42.6043C95.605 42.2472 95.436 41.9596 95.2053 41.7416C94.9741 41.5237 94.6713 41.3662 94.2951 41.2689C93.9194 41.1712 93.4575 41.1226 92.91 41.1226C92.3625 41.1226 91.9006 41.1712 91.5248 41.2689C91.1486 41.3662 90.8454 41.5242 90.6147 41.7416C90.3836 41.9596 90.2145 42.2472 90.1075 42.6043C90.0001 42.9613 89.9466 43.3994 89.9466 43.9189Z" fill="white"/>
<path d="M98.435 46.6881H103.283C103.97 46.6881 104.314 46.3775 104.314 45.7557C104.314 45.5612 104.266 45.4036 104.169 45.283C104.072 45.1623 103.935 45.0605 103.758 44.9768C103.581 44.8935 103.363 44.8215 103.106 44.7611C102.848 44.7008 102.553 44.6337 102.22 44.5594L100.658 44.2254C99.8414 44.0493 99.2459 43.8058 98.8701 43.4951C98.4944 43.1845 98.3063 42.7185 98.3063 42.0972C98.3063 41.4758 98.5021 41.0144 98.8941 40.7127C99.2862 40.4115 99.8578 40.2607 100.61 40.2607H105.232V41.2066H100.755C100.357 41.2066 100.075 41.2741 99.909 41.4083C99.7422 41.5429 99.6592 41.7725 99.6592 42.0972C99.6592 42.3011 99.6996 42.4708 99.7803 42.605C99.8605 42.7396 99.9706 42.8508 100.11 42.9391C100.25 43.0273 100.416 43.0994 100.61 43.1547C100.803 43.2101 101.018 43.2659 101.254 43.3218L102.945 43.6973C103.374 43.79 103.761 43.8828 104.104 43.9755C104.448 44.0682 104.741 44.1889 104.982 44.3375C105.224 44.4861 105.409 44.6716 105.538 44.894C105.667 45.1168 105.731 45.4086 105.731 45.7706C105.731 46.0582 105.697 46.3153 105.627 46.5427C105.557 46.7701 105.441 46.965 105.28 47.1271C105.119 47.2896 104.904 47.4148 104.636 47.5026C104.368 47.5908 104.029 47.6349 103.621 47.6349H98.4345V46.6881H98.435Z" fill="white"/>
<path d="M110.096 47.6339C109.559 47.6339 109.116 47.5808 108.767 47.4741C108.418 47.3674 108.142 47.212 107.938 47.0081C107.734 46.8041 107.589 46.5561 107.503 46.2639C107.417 45.9717 107.374 45.6403 107.374 45.2689V41.2065H106.118V40.2605H107.374V37.8955H108.727V40.2605H111.111V41.2065H108.727V45.1995C108.727 45.4872 108.762 45.7263 108.832 45.9158C108.901 46.1058 109.009 46.2589 109.154 46.3751C109.299 46.4912 109.487 46.5723 109.717 46.6186C109.948 46.665 110.224 46.6884 110.547 46.6884H111.111V47.6344H110.096V47.6339Z" fill="white"/>
</svg>
